<svg xmlns="http://www.w3.org/2000/svg" xmlns:xlink="http://www.w3.org/1999/xlink" xmlns:lucid="lucid" width="1000" height="560"><g transform="translate(-380 -60)" lucid:page-tab-id="0_0"><path d="M0 0h1760v1360H0z" fill="#fff"/><path d="M400 86a6 6 0 0 1 6-6h228a6 6 0 0 1 6 6v208a6 6 0 0 1-6 6H406a6 6 0 0 1-6-6z" stroke="#3a414a" stroke-width="3" fill="#fff"/><use xlink:href="#a" transform="matrix(1,0,0,1,405,85) translate(85.13075086805556 26.194661458333332)"/><path d="M420 126a6 6 0 0 1 6-6h188a6 6 0 0 1 6 6v28a6 6 0 0 1-6 6H426a6 6 0 0 1-6-6z" stroke="#3a414a" stroke-width="3" fill="#fff"/><use xlink:href="#b" transform="matrix(1,0,0,1,425,125) translate(38.47059461805556 26.194661458333332)"/><path d="M420 186a6 6 0 0 1 6-6h188a6 6 0 0 1 6 6v28a6 6 0 0 1-6 6H426a6 6 0 0 1-6-6z" stroke="#3a414a" stroke-width="3" fill="#fff"/><use xlink:href="#c" transform="matrix(1,0,0,1,425,185) translate(7.620985243055557 26.194661458333332)"/><path d="M420 246a6 6 0 0 1 6-6h188a6 6 0 0 1 6 6v28a6 6 0 0 1-6 6H426a6 6 0 0 1-6-6z" stroke="#3a414a" stroke-width="3" fill="#fff"/><use xlink:href="#d" transform="matrix(1,0,0,1,425,245) translate(9.172634548611114 26.194661458333332)"/><path d="M643 120h74.88" stroke="#3a414a" stroke-width="3" fill="none"/><path d="M643.04 121.5h-1.54v-3h1.54z" stroke="#3a414a" stroke-width=".05" fill="#3a414a"/><path d="M733.64 120l-14.26 4.64v-9.28z" stroke="#3a414a" stroke-width="3" fill="#3a414a"/><use xlink:href="#e" transform="matrix(1,0,0,1,675.8615123545189,90.4032118055556) translate(0.005000000000000782 20.149739583333332)"/><path d="M740 86a6 6 0 0 1 6-6h188a6 6 0 0 1 6 6v188a6 6 0 0 1-6 6H746a6 6 0 0 1-6-6z" stroke="#3a414a" stroke-width="3" fill="#fff"/><path d="M760 106a6 6 0 0 1 6-6h148a6 6 0 0 1 6 6v28a6 6 0 0 1-6 6H766a6 6 0 0 1-6-6z" stroke="#3a414a" stroke-width="3" fill="#fff"/><use xlink:href="#f" transform="matrix(1,0,0,1,765,105) translate(29.649522569444436 26.194661458333332)"/><path d="M760 166a6 6 0 0 1 6-6h148a6 6 0 0 1 6 6v88a6 6 0 0 1-6 6H766a6 6 0 0 1-6-6z" stroke="#3a414a" stroke-width="3" fill="#fff"/><use xlink:href="#g" transform="matrix(1,0,0,1,765,165) translate(64.08203125 26.194661458333332)"/><path d="M780 206a6 6 0 0 1 6-6h108a6 6 0 0 1 6 6v28a6 6 0 0 1-6 6H786a6 6 0 0 1-6-6z" stroke="#3a414a" stroke-width="3" fill="#fff"/><use xlink:href="#h" transform="matrix(1,0,0,1,785,205) translate(-0.48556857638888573 26.194661458333332)"/><path d="M1040 86a6 6 0 0 1 6-6h248a6 6 0 0 1 6 6v88a6 6 0 0 1-6 6h-248a6 6 0 0 1-6-6z" stroke="#3a414a" stroke-width="3" fill="#fff"/><use xlink:href="#i" transform="matrix(1,0,0,1,1045,85) translate(100.80132378472223 26.194661458333332)"/><path d="M1060 126a6 6 0 0 1 6-6h208a6 6 0 0 1 6 6v28a6 6 0 0 1-6 6h-208a6 6 0 0 1-6-6z" stroke="#3a414a" stroke-width="3" fill="#fff"/><use xlink:href="#j" transform="matrix(1,0,0,1,1065,125) translate(-0.8718532986110858 26.194661458333332)"/><path d="M1220 206a6 6 0 0 1 6-6h108a6 6 0 0 1 6 6v28a6 6 0 0 1-6 6h-108a6 6 0 0 1-6-6z" stroke="#3a414a" stroke-width="3" fill="#fff"/><use xlink:href="#k" transform="matrix(1,0,0,1,1225,205) translate(6.28526475694445 26.194661458333332)"/><path d="M923 120h94.88" stroke="#3a414a" stroke-width="3" fill="none"/><path d="M923.04 121.5h-1.54v-3h1.54z" stroke="#3a414a" stroke-width=".05" fill="#3a414a"/><path d="M1033.65 120l-14.27 4.64v-9.28z" stroke="#3a414a" stroke-width="3" fill="#3a414a"/><use xlink:href="#l" transform="matrix(1,0,0,1,951.6905325126305,90.40321180555557) translate(0.004999999999999005 20.149739583333332)"/><path d="M1197.88 221.5H903v-3h294.88z" stroke="#3a414a" stroke-width=".05" fill="#3a414a"/><path d="M903.04 221.5h-1.54v-3h1.54z" fill="#3a414a"/><path d="M903.06 221.53h-1.58v-3.06h1.58zm-1.53-3v2.94H903v-2.94z" stroke="#3a414a" stroke-width=".05" fill="#3a414a"/><path d="M1213.65 220l-14.27 4.63v-9.26z" fill="#3a414a"/><path d="M1218.5 220l-20.62 6.7v-13.4zm-17.62 2.57l7.9-2.57-7.9-2.57z" stroke="#3a414a" stroke-width=".05" fill="#3a414a"/><use xlink:href="#m" transform="matrix(1,0,0,1,1043.6572189012395,207.20160590277777) translate(0.005 20.149739583333332)"/><use xlink:href="#n" transform="matrix(1,0,0,1,1057.2349508225122,190.40321180555554) translate(0.005000000000002558 20.149739583333332)"/><path d="M1170 163v51a6 6 0 0 0 6 6h21.88" stroke="#3a414a" stroke-width="3" fill="none"/><path d="M1171.5 163.04h-3v-1.54h3z" stroke="#3a414a" stroke-width=".05" fill="#3a414a"/><path d="M1213.65 220l-14.27 4.63v-9.26z" stroke="#3a414a" stroke-width="3" fill="#3a414a"/><path d="M1280 243v14.88" stroke="#3a414a" stroke-width="3" fill="none"/><path d="M1281.5 243.04h-3v-1.54h3z" stroke="#3a414a" stroke-width=".05" fill="#3a414a"/><path d="M1280 273.65l-4.63-14.27h9.27z" stroke="#3a414a" stroke-width="3" fill="#3a414a"/><use xlink:href="#o" transform="matrix(1,0,0,1,1121.6833214732644,244.26477303640934) translate(0.0049999999999954525 20.149739583333332)"/><path d="M1200 286a6 6 0 0 1 6-6h148a6 6 0 0 1 6 6v28a6 6 0 0 1-6 6h-148a6 6 0 0 1-6-6z" stroke="#3a414a" stroke-width="3" fill="#fff"/><use xlink:href="#p" transform="matrix(1,0,0,1,1205,285) translate(-1.4187282986111143 26.194661458333332)"/><path d="M1280 323v11a6 6 0 0 1-6 6H986a6 6 0 0 0-6 6v11.88" stroke="green" stroke-width="3" fill="none"/><path d="M1281.5 323.04h-3v-1.54h3z" stroke="green" stroke-width=".05" fill="green"/><path d="M980 373.65l-4.63-14.27h9.26z" stroke="green" stroke-width="3" fill="green"/><path d="M975.17 118.6l1.15.26 1.1.45 1 .63.9.76.75.9.62 1 .44 1.08.27 1.15.1 1.1V357.9h-3V126.06l-.06-.76-.17-.7-.26-.64-.36-.6-.46-.54-.54-.46-.6-.36-.65-.28-.7-.16-.76-.06H923v-3h51.06z" stroke="green" stroke-width=".05" fill="green"/><path d="M923.04 121.5h-1.54v-3h1.54z" fill="green"/><path d="M923.06 121.53h-1.58v-3.06h1.58zm-1.53-3v2.94H923v-2.94z" stroke="green" stroke-width=".05" fill="green"/><path d="M980 373.65l-4.63-14.27h9.26z" fill="green"/><path d="M980 378.5l-6.7-20.62h13.4zm-2.57-17.62l2.57 7.9 2.57-7.9z" stroke="green" stroke-width=".05" fill="green"/><use xlink:href="#q" transform="matrix(1,0,0,1,988,302.6749476464732) translate(0.004999999999999005 20.149739583333332)"/><path d="M623 140h91a6 6 0 0 1 6 6v146.5a6 6 0 0 0 6 6h248a6 6 0 0 1 6 6v53.38" stroke="green" stroke-width="3" fill="none"/><path d="M623.04 141.5h-1.54v-3h1.54z" stroke="green" stroke-width=".05" fill="green"/><path d="M980 373.65l-4.63-14.27h9.26z" stroke="green" stroke-width="3" fill="green"/><path d="M623 200h71a6 6 0 0 1 6 6v108a6 6 0 0 0 6 6h268a6 6 0 0 1 6 6v31.88" stroke="green" stroke-width="3" fill="none"/><path d="M623.04 201.5h-1.54v-3h1.54z" stroke="green" stroke-width=".05" fill="green"/><path d="M980 373.65l-4.63-14.27h9.26z" stroke="green" stroke-width="3" fill="green"/><path d="M623 260h51a6 6 0 0 1 6 6v148a6 6 0 0 0 6 6h11.88" stroke="teal" stroke-width="3" fill="none"/><path d="M623.04 261.5h-1.54v-3h1.54z" stroke="teal" stroke-width=".05" fill="teal"/><path d="M713.65 420l-14.27 4.63v-9.26z" stroke="teal" stroke-width="3" fill="teal"/><use xlink:href="#r" transform="matrix(1,0,0,1,688,346.6029115678934) translate(0.005000000000002558 20.149739583333332)"/><path d="M900 386a6 6 0 0 1 6-6h148a6 6 0 0 1 6 6v68a6 6 0 0 1-6 6H906a6 6 0 0 1-6-6z" stroke="green" stroke-width="3" fill="#fff"/><use xlink:href="#s" transform="matrix(1,0,0,1,905,384.9999999999999) translate(16.735568576388886 26.194661458333332)"/><use xlink:href="#t" transform="matrix(1,0,0,1,905,384.9999999999999) translate(63.200412326388886 26.194661458333332)"/><use xlink:href="#u" transform="matrix(1,0,0,1,905,384.9999999999999) translate(51.52777777777778 59.470486111111114)"/><path d="M720 386a6 6 0 0 1 6-6h148a6 6 0 0 1 6 6v68a6 6 0 0 1-6 6H726a6 6 0 0 1-6-6z" stroke="teal" stroke-width="3" fill="#fff"/><use xlink:href="#v" transform="matrix(1,0,0,1,725,384.99999999999983) translate(16.735568576388886 26.194661458333332)"/><use xlink:href="#w" transform="matrix(1,0,0,1,725,384.99999999999983) translate(63.200412326388886 26.194661458333332)"/><use xlink:href="#x" transform="matrix(1,0,0,1,725,384.99999999999983) translate(20.67816840277778 59.470486111111114)"/><use xlink:href="#y" transform="matrix(1,0,0,1,725,384.99999999999983) translate(78.51236979166666 59.470486111111114)"/><path d="M1080 526a6 6 0 0 1 6-6h148a6 6 0 0 1 6 6v28a6 6 0 0 1-6 6h-148a6 6 0 0 1-6-6z" stroke="#3a414a" stroke-width="3" fill="#fff"/><use xlink:href="#z" transform="matrix(1,0,0,1,1085,525) translate(5.5002170138889 26.194661458333332)"/><use xlink:href="#A" transform="matrix(1,0,0,1,1085,525) translate(51.31618923611112 26.194661458333332)"/><path d="M1160 517v-34.88" stroke="navy" stroke-width="3" fill="none"/><path d="M1161.5 518.5h-3v-1.54h3z" stroke="navy" stroke-width=".05" fill="navy"/><path d="M1160 466.35l4.63 14.27h-9.27z" stroke="navy" stroke-width="3" fill="navy"/><use xlink:href="#B" transform="matrix(1,0,0,1,1172.635254915624,477.20160590277766) translate(0.0049999999999954525 20.149739583333332)"/><path d="M1080 386a6 6 0 0 1 6-6h148a6 6 0 0 1 6 6v68a6 6 0 0 1-6 6h-148a6 6 0 0 1-6-6z" stroke="navy" stroke-width="3" fill="#fff"/><use xlink:href="#C" transform="matrix(1,0,0,1,1085,384.99999999999983) translate(16.735568576388886 26.194661458333332)"/><use xlink:href="#D" transform="matrix(1,0,0,1,1085,384.99999999999983) translate(63.200412326388886 26.194661458333332)"/><use xlink:href="#E" transform="matrix(1,0,0,1,1085,384.99999999999983) translate(28.408203125000007 59.470486111111114)"/><path d="M520 283v74.88" stroke="purple" stroke-width="3" fill="none"/><path d="M521.5 283.04h-3v-1.54h3z" stroke="purple" stroke-width=".05" fill="purple"/><path d="M520 373.65l-4.63-14.27h9.26z" stroke="purple" stroke-width="3" fill="purple"/><use xlink:href="#F" transform="matrix(1,0,0,1,528.0000000000001,324.20160590277777) translate(0.005000000000002558 20.149739583333332)"/><path d="M440 386a6 6 0 0 1 6-6h148a6 6 0 0 1 6 6v68a6 6 0 0 1-6 6H446a6 6 0 0 1-6-6z" stroke="purple" stroke-width="3" fill="#fff"/><g><use xlink:href="#G" transform="matrix(1,0,0,1,445,385) translate(15.056966145833336 26.194661458333332)"/><use xlink:href="#H" transform="matrix(1,0,0,1,445,385) translate(61.521809895833336 26.194661458333332)"/><use xlink:href="#I" transform="matrix(1,0,0,1,445,385) translate(5.182834201388886 59.470486111111114)"/><use xlink:href="#J" transform="matrix(1,0,0,1,445,385) translate(73.45540364583333 59.470486111111114)"/></g><path d="M980 566a6 6 0 0 1 6-6h348a6 6 0 0 1 6 6v28a6 6 0 0 1-6 6H986a6 6 0 0 1-6-6z" stroke="#000" stroke-opacity="0" fill="#fff" fill-opacity="0"/><g><use xlink:href="#K" transform="matrix(1,0,0,1,985,565) translate(19.943576388888886 20.149739583333332)"/><use xlink:href="#L" transform="matrix(1,0,0,1,985,565) translate(86.5234375 20.149739583333332)"/><use xlink:href="#M" transform="matrix(1,0,0,1,985,565) translate(144.140625 20.149739583333332)"/><use xlink:href="#N" transform="matrix(1,0,0,1,985,565) translate(168.359375 20.149739583333332)"/><use xlink:href="#O" transform="matrix(1,0,0,1,985,565) translate(200.23871527777777 20.149739583333332)"/><use xlink:href="#P" transform="matrix(1,0,0,1,985,565) translate(248.02517361111111 20.149739583333332)"/><use xlink:href="#Q" transform="matrix(1,0,0,1,985,565) translate(265.97222222222223 20.149739583333332)"/></g><path d="M623 260h31a6 6 0 0 1 6 6v228a6 6 0 0 0 6 6h488a6 6 0 0 0 6-6v-11.88" stroke="navy" stroke-width="3" fill="none"/><path d="M623.04 261.5h-1.54v-3h1.54z" stroke="navy" stroke-width=".05" fill="navy"/><path d="M1160 466.35l4.63 14.27h-9.27z" stroke="navy" stroke-width="3" fill="navy"/><defs><path fill="#3a414a" d="M241-811c290-144 563 150 563 427 0 269-245 510-522 386 3 148 1 204-14 321-81 99-190 62-178-113 16-227-25-734-25-971 0-93 132-125 176-50zm191 649c100 0 176-118 176-222 0-126-96-273-217-273-53 0-94 27-123 80 5 119 8 237 8 352 56 42 108 63 156 63" id="R"/><path fill="#3a414a" d="M529-872c255 0 326 211 326 503 0 146-10 253-32 320-18 56-52 83-99 83-53 0-95-41-94-94 4-187 101-621-111-619-95 0-163 74-220 216-24 59-14 117-17 192-3 89-6 176-14 261-41 29-77 44-108 44-45 0-71-81-71-130 2-345 13-664 1-1005-5-133-25-201-25-206-1-52 39-92 90-92 54 0 94 31 103 97 19 137 4 374 7 532 83-68 171-102 264-102" id="S"/><path fill="#3a414a" d="M425-862c217 0 353 210 353 439 0 240-138 457-368 457C191 34 49-155 49-377c0-243 145-485 376-485zm-9 703c111 0 169-142 169-264 0-111-61-246-162-246-123 0-184 93-184 278 0 155 59 232 177 232" id="T"/><path fill="#3a414a" d="M432-858c231 0 331 186 331 435 0 67-21 291-19 358 2 50-44 98-94 97-161-3-83-317-83-459 0-161-47-242-140-242-73 0-130 35-171 106v447c0 100-32 150-97 150C98 34 67-4 67-80c-2-279 3-404 3-720 48-30 87-45 116-45 27 0 46 14 56 41 59-36 123-54 190-54" id="U"/><path fill="#3a414a" d="M741-273c50-2 102 44 100 94 0 19-8 40-25 63C764-40 600 34 473 34 251 34 46-175 46-396c0-217 200-459 413-459 160 0 336 211 336 369 0 44-28 73-82 92-62 22-312 32-464 24 15 104 106 205 224 203 39 0 88-18 149-53s100-53 119-53zM572-570c-76-133-187-104-270 20 39-1 129-7 270-20" id="V"/><g id="a"><use transform="matrix(0.014105902777777778,0,0,0.014105902777777778,0,0)" xlink:href="#R"/><use transform="matrix(0.014105902777777778,0,0,0.014105902777777778,11.60915798611111,0)" xlink:href="#S"/><use transform="matrix(0.014105902777777778,0,0,0.014105902777777778,23.965928819444443,0)" xlink:href="#T"/><use transform="matrix(0.014105902777777778,0,0,0.014105902777777778,35.65972222222222,0)" xlink:href="#U"/><use transform="matrix(0.014105902777777778,0,0,0.014105902777777778,47.26888020833333,0)" xlink:href="#V"/></g><path fill="#3a414a" d="M253-1232c0 339 47 894 1 1220C165 56 70 64 75-94c7-254-17-925-15-1193 0-75 31-112 92-112 67 0 101 56 101 167" id="W"/><path fill="#3a414a" d="M693-317c70-2 127 82 85 150C718-70 552 31 404 34 201 38 40-151 44-358c4-212 146-388 302-458 115-51 232-54 316 28 45 43 73 95 84 157-37 55-72 83-106 83-41 12-94-120-135-109-108-10-258 167-258 275 0 142 52 213 157 213 43 0 97-25 163-74s108-74 126-74" id="X"/><path fill="#3a414a" d="M836-686c0 187-30 463 2 630-71 75-129 122-171 10-82 53-167 80-256 80C187 34 46-160 46-393c0-281 308-555 614-431 19-27 45-40 76-40 67 0 100 59 100 178zM249-382c0 105 58 213 157 213 80 0 157-36 232-109 3-73 4-181 4-326 1 1-110-58-139-48-132-6-254 139-254 270" id="Y"/><path fill="#3a414a" d="M166-1145c59 0 114 47 114 107 0 55-45 110-101 110S68-983 68-1038c0-54 42-107 98-107zm102 399c0 47 1 108-5 186-18 245-2 393-31 567C152 48 64 53 63-55c-3-213 9-280 9-561 0-147 36-220 109-220 58 0 87 30 87 90" id="Z"/><path fill="#3a414a" d="M691-857c49-1 98 48 92 96-8 63-118 182-179 264-58 77-145 191-266 342 129-5 230-7 305-7 90 0 135 33 135 99 0 65-49 97-148 97H191C104 34 61 5 61-53c0-96 127-202 181-271 59-74 142-188 255-338-201 0-323-3-367-9-53-74-79-156 24-177 117-24 334-5 537-9" id="aa"/><path fill="#3a414a" d="M584-872c50 0 94 39 94 90 0 53-31 85-94 98-29 6-81 10-156 10v662c-58 31-101 46-128 46-39 0-59-22-59-65 2-210 3-252 3-645-82 0-147-4-195-12-65-109-48-182 122-181 13-1 61 4 73 4v-364c-1-48 42-89 91-89 47 0 92 41 92 89v359c43-1 96-2 157-2" id="ab"/><g id="b"><use transform="matrix(0.014105902777777778,0,0,0.014105902777777778,0,0)" xlink:href="#W"/><use transform="matrix(0.014105902777777778,0,0,0.014105902777777778,4.669053819444445,0)" xlink:href="#T"/><use transform="matrix(0.014105902777777778,0,0,0.014105902777777778,16.36284722222222,0)" xlink:href="#X"/><use transform="matrix(0.014105902777777778,0,0,0.014105902777777778,28.141276041666664,0)" xlink:href="#Y"/><use transform="matrix(0.014105902777777778,0,0,0.014105902777777778,40.90711805555556,0)" xlink:href="#W"/><use transform="matrix(0.014105902777777778,0,0,0.014105902777777778,45.576171875,0)" xlink:href="#Z"/><use transform="matrix(0.014105902777777778,0,0,0.014105902777777778,50.442708333333336,0)" xlink:href="#aa"/><use transform="matrix(0.014105902777777778,0,0,0.014105902777777778,62.40451388888889,0)" xlink:href="#Y"/><use transform="matrix(0.014105902777777778,0,0,0.014105902777777778,75.17035590277779,0)" xlink:href="#ab"/><use transform="matrix(0.014105902777777778,0,0,0.014105902777777778,84.88932291666667,0)" xlink:href="#Z"/><use transform="matrix(0.014105902777777778,0,0,0.014105902777777778,89.755859375,0)" xlink:href="#T"/><use transform="matrix(0.014105902777777778,0,0,0.014105902777777778,101.44965277777777,0)" xlink:href="#U"/></g><path fill="#3a414a" d="M531-614c-33 0-117-43-150-43-49 0-84 9-103 26 45 67 311 167 362 220 54 56 87 121 87 208C727-59 571 34 418 34 267 34 142-29 43-154c7-41 48-130 87-128 2 0 37 22 104 66s127 66 179 66c66 0 107-17 123-50-5-45-48-90-128-136-72-41-147-78-217-121-80-49-116-111-116-174 0-130 162-224 297-224 79 0 256 66 256 140 0 50-47 101-97 101" id="ac"/><path fill="#3a414a" d="M783-642c0 71 21 306 21 377 0 460-121 690-364 690-136 0-280-109-327-207-34-72 20-145 90-143 27 0 63 24 107 73C435 286 558 226 587 5 297 130 44-148 44-418c0-291 294-545 577-389 67-39 142-43 157 48 3 17 5 56 5 117zM242-423c0 121 98 257 214 257 26 0 76-21 150-63-1-66-9-190-22-372-40-39-84-59-133-59-116 0-209 122-209 237" id="ad"/><path fill="#3a414a" d="M800-724c-3 222-2 446 2 668 1 51-39 90-90 90-53 0-84-27-94-82-63 55-132 82-207 82C174 34 56-189 56-635c0-150 38-225 113-225 56 0 102 41 102 97 0 43-12 196-12 239 0 243 51 364 154 364 106 0 187-142 196-250 5-64-2-333 21-399 87-53 172-58 170 85" id="ae"/><path fill="#3a414a" d="M468-848c193 0 298 180 298 385 0 53-38 94-92 94-48 0-81-25-95-75-20-75-16-213-105-213-95 0-223 127-223 222v425c-45 29-84 44-116 44-42 0-63-31-63-92 0-166-4-210-4-604 0-125 33-188 99-188 53 0 83 27 91 82 68-53 138-80 210-80" id="af"/><path fill="#3a414a" d="M278-811c294-144 579 123 579 418 0 299-339 549-616 366-83 66-173 65-173-86 0-212 12-919 11-1131 0-103 33-155 100-155 66 0 99 51 99 153v435zm171 645c137-23 210-103 210-233 0-131-92-258-217-258-67 0-128 26-183 78v274c52 87 83 131 190 139" id="ag"/><g id="c"><use transform="matrix(0.014105902777777778,0,0,0.014105902777777778,0,0)" xlink:href="#ac"/><use transform="matrix(0.014105902777777778,0,0,0.014105902777777778,10.86154513888889,0)" xlink:href="#Z"/><use transform="matrix(0.014105902777777778,0,0,0.014105902777777778,15.728081597222223,0)" xlink:href="#ad"/><use transform="matrix(0.014105902777777778,0,0,0.014105902777777778,27.91558159722222,0)" xlink:href="#U"/><use transform="matrix(0.014105902777777778,0,0,0.014105902777777778,39.52473958333333,0)" xlink:href="#Y"/><use transform="matrix(0.014105902777777778,0,0,0.014105902777777778,52.290581597222214,0)" xlink:href="#ab"/><use transform="matrix(0.014105902777777778,0,0,0.014105902777777778,62.0095486111111,0)" xlink:href="#ae"/><use transform="matrix(0.014105902777777778,0,0,0.014105902777777778,74.30989583333333,0)" xlink:href="#af"/><use transform="matrix(0.014105902777777778,0,0,0.014105902777777778,85.28428819444444,0)" xlink:href="#V"/><use transform="matrix(0.014105902777777778,0,0,0.014105902777777778,97.75390625,0)" xlink:href="#Y"/><use transform="matrix(0.014105902777777778,0,0,0.014105902777777778,110.13888888888889,0)" xlink:href="#ag"/><use transform="matrix(0.014105902777777778,0,0,0.014105902777777778,122.43923611111111,0)" xlink:href="#Z"/><use transform="matrix(0.014105902777777778,0,0,0.014105902777777778,127.30577256944444,0)" xlink:href="#W"/><use transform="matrix(0.014105902777777778,0,0,0.014105902777777778,131.97482638888889,0)" xlink:href="#Z"/><use transform="matrix(0.014105902777777778,0,0,0.014105902777777778,136.84136284722223,0)" xlink:href="#ab"/><use transform="matrix(0.014105902777777778,0,0,0.014105902777777778,146.56032986111111,0)" xlink:href="#Z"/><use transform="matrix(0.014105902777777778,0,0,0.014105902777777778,151.42686631944446,0)" xlink:href="#V"/><use transform="matrix(0.014105902777777778,0,0,0.014105902777777778,163.896484375,0)" xlink:href="#ac"/></g><path fill="#3a414a" d="M555-828c4-155-11-330-11-481 0-60 30-90 89-90 48 0 79 26 94 78 7 24 10 70 10 137 0 363-3 845 29 1153-44 35-82 53-114 53-23 0-40-14-53-42-61 36-127 54-196 54C185 34 15-173 15-393c0-266 251-557 540-435zM215-399c0 121 74 239 189 239 65 0 121-23 166-69-7-86-10-208-10-365-47-42-93-63-138-63-109 0-207 146-207 258" id="ah"/><path fill="#3a414a" d="M476-126c0-66 16-285 16-352 0-127-35-191-105-191-52 0-95 33-128 99v459c-1 97-34 145-99 145C99 34 68-4 68-80c-3-280 4-405 5-720 48-30 87-45 118-45 23 0 40 10 51 29 122-74 282-47 360 57 61-63 131-94 210-94 198 0 297 146 297 437 0 66-17 290-15 356 2 51-43 94-94 94-66 0-99-52-99-155 0-65 14-288 14-353 0-127-35-190-104-190-57 0-102 36-133 109 23 130-10 351-9 490 1 50-44 94-94 94-66 0-99-52-99-155" id="ai"/><g id="d"><use transform="matrix(0.014105902777777778,0,0,0.014105902777777778,0,0)" xlink:href="#R"/><use transform="matrix(0.014105902777777778,0,0,0.014105902777777778,11.60915798611111,0)" xlink:href="#Y"/><use transform="matrix(0.014105902777777778,0,0,0.014105902777777778,24.375,0)" xlink:href="#W"/><use transform="matrix(0.014105902777777778,0,0,0.014105902777777778,29.044053819444446,0)" xlink:href="#V"/><use transform="matrix(0.014105902777777778,0,0,0.014105902777777778,41.513671875,0)" xlink:href="#ab"/><use transform="matrix(0.014105902777777778,0,0,0.014105902777777778,51.232638888888886,0)" xlink:href="#ab"/><use transform="matrix(0.014105902777777778,0,0,0.014105902777777778,60.951605902777764,0)" xlink:href="#Z"/><use transform="matrix(0.014105902777777778,0,0,0.014105902777777778,65.8181423611111,0)" xlink:href="#aa"/><use transform="matrix(0.014105902777777778,0,0,0.014105902777777778,77.77994791666666,0)" xlink:href="#V"/><use transform="matrix(0.014105902777777778,0,0,0.014105902777777778,90.24956597222221,0)" xlink:href="#ah"/><use transform="matrix(0.014105902777777778,0,0,0.014105902777777778,101.943359375,0)" xlink:href="#Z"/><use transform="matrix(0.014105902777777778,0,0,0.014105902777777778,106.80989583333333,0)" xlink:href="#ai"/><use transform="matrix(0.014105902777777778,0,0,0.014105902777777778,123.37022569444444,0)" xlink:href="#Y"/><use transform="matrix(0.014105902777777778,0,0,0.014105902777777778,136.13606770833334,0)" xlink:href="#ad"/><use transform="matrix(0.014105902777777778,0,0,0.014105902777777778,148.32356770833334,0)" xlink:href="#V"/><use transform="matrix(0.014105902777777778,0,0,0.014105902777777778,160.79318576388889,0)" xlink:href="#ac"/></g><path fill="#333" d="M836-686c0 187-30 463 2 630-71 75-129 122-171 10-82 53-167 80-256 80C187 34 46-160 46-393c0-281 308-555 614-431 19-27 45-40 76-40 67 0 100 59 100 178zM249-382c0 105 58 213 157 213 80 0 157-36 232-109 3-73 4-181 4-326 1 1-110-58-139-48-132-6-254 139-254 270" id="aj"/><path fill="#333" d="M555-828c4-155-11-330-11-481 0-60 30-90 89-90 48 0 79 26 94 78 7 24 10 70 10 137 0 363-3 845 29 1153-44 35-82 53-114 53-23 0-40-14-53-42-61 36-127 54-196 54C185 34 15-173 15-393c0-266 251-557 540-435zM215-399c0 121 74 239 189 239 65 0 121-23 166-69-7-86-10-208-10-365-47-42-93-63-138-63-109 0-207 146-207 258" id="ak"/><path fill="#333" d="M278-811c294-144 579 123 579 418 0 299-339 549-616 366-83 66-173 65-173-86 0-212 12-919 11-1131 0-103 33-155 100-155 66 0 99 51 99 153v435zm171 645c137-23 210-103 210-233 0-131-92-258-217-258-67 0-128 26-183 78v274c52 87 83 131 190 139" id="al"/><g id="e"><use transform="matrix(0.010850694444444444,0,0,0.010850694444444444,0,0)" xlink:href="#aj"/><use transform="matrix(0.010850694444444444,0,0,0.010850694444444444,9.819878472222221,0)" xlink:href="#ak"/><use transform="matrix(0.010850694444444444,0,0,0.010850694444444444,18.815104166666664,0)" xlink:href="#al"/></g><path fill="#3a414a" d="M280-225c67 0 116 72 116 138 0 64-59 119-123 119-72 0-138-40-138-105 0-66 78-152 145-152" id="am"/><path fill="#3a414a" d="M686-850c46 2 135 38 135 80 0 54-100 151-300 292C722-235 823-93 823-53c0 50-50 88-98 87-73 0-134-118-172-172-51-72-109-152-176-239-23 16-62 44-118 85-2 114-9 213-22 297C157 49 68 54 68-58c0-305 17-812 5-1251-1-51 42-90 93-90 63 0 95 49 95 146 0 230 7 501 5 727 144-104 237-165 420-324" id="an"/><g id="f"><use transform="matrix(0.014105902777777778,0,0,0.014105902777777778,0,0)" xlink:href="#ag"/><use transform="matrix(0.014105902777777778,0,0,0.014105902777777778,12.300347222222223,0)" xlink:href="#Y"/><use transform="matrix(0.014105902777777778,0,0,0.014105902777777778,25.066189236111114,0)" xlink:href="#ac"/><use transform="matrix(0.014105902777777778,0,0,0.014105902777777778,35.927734375,0)" xlink:href="#V"/><use transform="matrix(0.014105902777777778,0,0,0.014105902777777778,47.099609375,0)" xlink:href="#am"/><use transform="matrix(0.014105902777777778,0,0,0.014105902777777778,54.87196180555556,0)" xlink:href="#Y"/><use transform="matrix(0.014105902777777778,0,0,0.014105902777777778,67.29926215277779,0)" xlink:href="#R"/><use transform="matrix(0.014105902777777778,0,0,0.014105902777777778,78.9084201388889,0)" xlink:href="#an"/></g><g id="g"><use transform="matrix(0.014105902777777778,0,0,0.014105902777777778,0,0)" xlink:href="#W"/><use transform="matrix(0.014105902777777778,0,0,0.014105902777777778,4.669053819444445,0)" xlink:href="#Z"/><use transform="matrix(0.014105902777777778,0,0,0.014105902777777778,9.535590277777779,0)" xlink:href="#ag"/></g><path fill="#3a414a" d="M874-172c53 0 97 45 97 99C971-2 761 34 340 34 242 34 193 0 193-67c0-85 48-193 150-319 90-111 186-218 278-329 102-124 150-228 150-307 0-116-99-176-220-176-156 0-209 91-186 234 8 52-48 100-100 100-71 0-103-105-103-186 0-214 174-349 393-349 229 0 411 151 411 375 0 121-58 262-184 415-101 122-208 237-311 356-26 30-45 58-58 81h461" id="ao"/><g id="h"><use transform="matrix(0.014105902777777778,0,0,0.014105902777777778,0,0)" xlink:href="#W"/><use transform="matrix(0.014105902777777778,0,0,0.014105902777777778,4.669053819444445,0)" xlink:href="#Z"/><use transform="matrix(0.014105902777777778,0,0,0.014105902777777778,9.535590277777779,0)" xlink:href="#ag"/><use transform="matrix(0.014105902777777778,0,0,0.014105902777777778,21.8359375,0)" xlink:href="#Z"/><use transform="matrix(0.014105902777777778,0,0,0.014105902777777778,26.702473958333332,0)" xlink:href="#W"/><use transform="matrix(0.014105902777777778,0,0,0.014105902777777778,31.37152777777778,0)" xlink:href="#ao"/><use transform="matrix(0.014105902777777778,0,0,0.014105902777777778,47.24066840277778,0)" xlink:href="#X"/><use transform="matrix(0.014105902777777778,0,0,0.014105902777777778,59.01909722222222,0)" xlink:href="#R"/><use transform="matrix(0.014105902777777778,0,0,0.014105902777777778,70.62825520833333,0)" xlink:href="#R"/><use transform="matrix(0.014105902777777778,0,0,0.014105902777777778,80.64344618055556,0)" xlink:href="#am"/><use transform="matrix(0.014105902777777778,0,0,0.014105902777777778,88.41579861111111,0)" xlink:href="#ac"/><use transform="matrix(0.014105902777777778,0,0,0.014105902777777778,99.27734375,0)" xlink:href="#T"/></g><g id="i"><use transform="matrix(0.014105902777777778,0,0,0.014105902777777778,0,0)" xlink:href="#ag"/><use transform="matrix(0.014105902777777778,0,0,0.014105902777777778,12.300347222222223,0)" xlink:href="#Y"/><use transform="matrix(0.014105902777777778,0,0,0.014105902777777778,25.066189236111114,0)" xlink:href="#ac"/><use transform="matrix(0.014105902777777778,0,0,0.014105902777777778,35.927734375,0)" xlink:href="#V"/></g><path fill="#3a414a" d="M649-771c55-2 97 39 97 95 0 73-131 106-219 106-49 0-217-8-266-7-48 1-89-40-89-89 0-63 63-95 190-95 87 0 202-8 287-10" id="ap"/><g id="j"><use transform="matrix(0.014105902777777778,0,0,0.014105902777777778,0,0)" xlink:href="#ad"/><use transform="matrix(0.014105902777777778,0,0,0.014105902777777778,12.1875,0)" xlink:href="#W"/><use transform="matrix(0.014105902777777778,0,0,0.014105902777777778,16.856553819444443,0)" xlink:href="#T"/><use transform="matrix(0.014105902777777778,0,0,0.014105902777777778,28.55034722222222,0)" xlink:href="#ag"/><use transform="matrix(0.014105902777777778,0,0,0.014105902777777778,40.85069444444444,0)" xlink:href="#Y"/><use transform="matrix(0.014105902777777778,0,0,0.014105902777777778,53.61653645833333,0)" xlink:href="#W"/><use transform="matrix(0.014105902777777778,0,0,0.014105902777777778,58.285590277777764,0)" xlink:href="#ap"/><use transform="matrix(0.014105902777777778,0,0,0.014105902777777778,71.33355034722221,0)" xlink:href="#ai"/><use transform="matrix(0.014105902777777778,0,0,0.014105902777777778,87.89388020833333,0)" xlink:href="#V"/><use transform="matrix(0.014105902777777778,0,0,0.014105902777777778,100.36349826388889,0)" xlink:href="#ab"/><use transform="matrix(0.014105902777777778,0,0,0.014105902777777778,110.08246527777777,0)" xlink:href="#Y"/><use transform="matrix(0.014105902777777778,0,0,0.014105902777777778,122.84830729166667,0)" xlink:href="#ah"/><use transform="matrix(0.014105902777777778,0,0,0.014105902777777778,134.54210069444443,0)" xlink:href="#Y"/><use transform="matrix(0.014105902777777778,0,0,0.014105902777777778,147.30794270833331,0)" xlink:href="#ab"/><use transform="matrix(0.014105902777777778,0,0,0.014105902777777778,157.0269097222222,0)" xlink:href="#Y"/><use transform="matrix(0.014105902777777778,0,0,0.014105902777777778,169.7927517361111,0)" xlink:href="#am"/><use transform="matrix(0.014105902777777778,0,0,0.014105902777777778,177.56510416666663,0)" xlink:href="#ah"/><use transform="matrix(0.014105902777777778,0,0,0.014105902777777778,189.2588975694444,0)" xlink:href="#Y"/><use transform="matrix(0.014105902777777778,0,0,0.014105902777777778,202.0247395833333,0)" xlink:href="#ab"/></g><path fill="#3a414a" d="M411-1399c368 0 645 350 645 727 0 378-306 706-681 706-95 0-326-60-319-143 5-59 62-115 128-94-2-146-3-465-3-958-58 5-88-29-77-83 53-121 126-155 307-155zM358-169c284 19 504-231 500-510-3-195-93-378-215-458-76-49-171-76-288-76 2 233 3 581 3 1044" id="aq"/><path fill="#3a414a" d="M683-811c45-89 204-23 170 70C723-388 475 102 295 379c-62 7-148-23-150-70 0-14 63-137 190-370-52-145-206-460-286-707 72-102 138-124 192 0 58 134 146 340 208 481 110-218 131-319 234-524" id="ar"/><g id="k"><use transform="matrix(0.014105902777777778,0,0,0.014105902777777778,0,0)" xlink:href="#aq"/><use transform="matrix(0.014105902777777778,0,0,0.014105902777777778,15.530598958333334,0)" xlink:href="#ae"/><use transform="matrix(0.014105902777777778,0,0,0.014105902777777778,27.830946180555557,0)" xlink:href="#ai"/><use transform="matrix(0.014105902777777778,0,0,0.014105902777777778,44.39127604166667,0)" xlink:href="#ai"/><use transform="matrix(0.014105902777777778,0,0,0.014105902777777778,60.232204861111114,0)" xlink:href="#ar"/><use transform="matrix(0.014105902777777778,0,0,0.014105902777777778,72.56076388888889,0)" xlink:href="#aq"/><use transform="matrix(0.014105902777777778,0,0,0.014105902777777778,88.09136284722221,0)" xlink:href="#W"/><use transform="matrix(0.014105902777777778,0,0,0.014105902777777778,92.76041666666666,0)" xlink:href="#W"/></g><path fill="#333" d="M241-811c290-144 563 150 563 427 0 269-245 510-522 386 3 148 1 204-14 321-81 99-190 62-178-113 16-227-25-734-25-971 0-93 132-125 176-50zm191 649c100 0 176-118 176-222 0-126-96-273-217-273-53 0-94 27-123 80 5 119 8 237 8 352 56 42 108 63 156 63" id="as"/><path fill="#333" d="M686-850c46 2 135 38 135 80 0 54-100 151-300 292C722-235 823-93 823-53c0 50-50 88-98 87-73 0-134-118-172-172-51-72-109-152-176-239-23 16-62 44-118 85-2 114-9 213-22 297C157 49 68 54 68-58c0-305 17-812 5-1251-1-51 42-90 93-90 63 0 95 49 95 146 0 230 7 501 5 727 144-104 237-165 420-324" id="at"/><path fill="#333" d="M584-872c50 0 94 39 94 90 0 53-31 85-94 98-29 6-81 10-156 10v662c-58 31-101 46-128 46-39 0-59-22-59-65 2-210 3-252 3-645-82 0-147-4-195-12-65-109-48-182 122-181 13-1 61 4 73 4v-364c-1-48 42-89 91-89 47 0 92 41 92 89v359c43-1 96-2 157-2" id="au"/><path fill="#333" d="M425-862c217 0 353 210 353 439 0 240-138 457-368 457C191 34 49-155 49-377c0-243 145-485 376-485zm-9 703c111 0 169-142 169-264 0-111-61-246-162-246-123 0-184 93-184 278 0 155 59 232 177 232" id="av"/><path fill="#333" d="M253-1232c0 339 47 894 1 1220C165 56 70 64 75-94c7-254-17-925-15-1193 0-75 31-112 92-112 67 0 101 56 101 167" id="aw"/><g id="l"><use transform="matrix(0.010850694444444444,0,0,0.010850694444444444,0,0)" xlink:href="#aj"/><use transform="matrix(0.010850694444444444,0,0,0.010850694444444444,9.559461805555555,0)" xlink:href="#as"/><use transform="matrix(0.010850694444444444,0,0,0.010850694444444444,18.489583333333332,0)" xlink:href="#at"/><use transform="matrix(0.010850694444444444,0,0,0.010850694444444444,27.56076388888889,0)" xlink:href="#au"/><use transform="matrix(0.010850694444444444,0,0,0.010850694444444444,35.03689236111111,0)" xlink:href="#av"/><use transform="matrix(0.010850694444444444,0,0,0.010850694444444444,44.03211805555555,0)" xlink:href="#av"/><use transform="matrix(0.010850694444444444,0,0,0.010850694444444444,53.027343749999986,0)" xlink:href="#aw"/></g><path fill="#333" d="M166-1145c59 0 114 47 114 107 0 55-45 110-101 110S68-983 68-1038c0-54 42-107 98-107zm102 399c0 47 1 108-5 186-18 245-2 393-31 567C152 48 64 53 63-55c-3-213 9-280 9-561 0-147 36-220 109-220 58 0 87 30 87 90" id="ax"/><path fill="#333" d="M874-172c53 0 97 45 97 99C971-2 761 34 340 34 242 34 193 0 193-67c0-85 48-193 150-319 90-111 186-218 278-329 102-124 150-228 150-307 0-116-99-176-220-176-156 0-209 91-186 234 8 52-48 100-100 100-71 0-103-105-103-186 0-214 174-349 393-349 229 0 411 151 411 375 0 121-58 262-184 415-101 122-208 237-311 356-26 30-45 58-58 81h461" id="ay"/><path fill="#333" d="M693-317c70-2 127 82 85 150C718-70 552 31 404 34 201 38 40-151 44-358c4-212 146-388 302-458 115-51 232-54 316 28 45 43 73 95 84 157-37 55-72 83-106 83-41 12-94-120-135-109-108-10-258 167-258 275 0 142 52 213 157 213 43 0 97-25 163-74s108-74 126-74" id="az"/><path fill="#333" d="M800-724c-3 222-2 446 2 668 1 51-39 90-90 90-53 0-84-27-94-82-63 55-132 82-207 82C174 34 56-189 56-635c0-150 38-225 113-225 56 0 102 41 102 97 0 43-12 196-12 239 0 243 51 364 154 364 106 0 187-142 196-250 5-64-2-333 21-399 87-53 172-58 170 85" id="aA"/><path fill="#333" d="M476-126c0-66 16-285 16-352 0-127-35-191-105-191-52 0-95 33-128 99v459c-1 97-34 145-99 145C99 34 68-4 68-80c-3-280 4-405 5-720 48-30 87-45 118-45 23 0 40 10 51 29 122-74 282-47 360 57 61-63 131-94 210-94 198 0 297 146 297 437 0 66-17 290-15 356 2 51-43 94-94 94-66 0-99-52-99-155 0-65 14-288 14-353 0-127-35-190-104-190-57 0-102 36-133 109 23 130-10 351-9 490 1 50-44 94-94 94-66 0-99-52-99-155" id="aB"/><path fill="#333" d="M741-273c50-2 102 44 100 94 0 19-8 40-25 63C764-40 600 34 473 34 251 34 46-175 46-396c0-217 200-459 413-459 160 0 336 211 336 369 0 44-28 73-82 92-62 22-312 32-464 24 15 104 106 205 224 203 39 0 88-18 149-53s100-53 119-53zM572-570c-76-133-187-104-270 20 39-1 129-7 270-20" id="aC"/><path fill="#333" d="M468-848c193 0 298 180 298 385 0 53-38 94-92 94-48 0-81-25-95-75-20-75-16-213-105-213-95 0-223 127-223 222v425c-45 29-84 44-116 44-42 0-63-31-63-92 0-166-4-210-4-604 0-125 33-188 99-188 53 0 83 27 91 82 68-53 138-80 210-80" id="aD"/><g id="n"><use transform="matrix(0.010850694444444444,0,0,0.010850694444444444,0,0)" xlink:href="#ax"/><use transform="matrix(0.010850694444444444,0,0,0.010850694444444444,3.743489583333333,0)" xlink:href="#aw"/><use transform="matrix(0.010850694444444444,0,0,0.010850694444444444,7.335069444444444,0)" xlink:href="#ay"/><use transform="matrix(0.010850694444444444,0,0,0.010850694444444444,19.542100694444443,0)" xlink:href="#az"/><use transform="matrix(0.010850694444444444,0,0,0.010850694444444444,28.602430555555554,0)" xlink:href="#as"/><use transform="matrix(0.010850694444444444,0,0,0.010850694444444444,37.53255208333333,0)" xlink:href="#as"/><use transform="matrix(0.010850694444444444,0,0,0.010850694444444444,46.46267361111111,0)" xlink:href="#ak"/><use transform="matrix(0.010850694444444444,0,0,0.010850694444444444,55.45789930555556,0)" xlink:href="#aA"/><use transform="matrix(0.010850694444444444,0,0,0.010850694444444444,64.9197048611111,0)" xlink:href="#aB"/><use transform="matrix(0.010850694444444444,0,0,0.010850694444444444,77.65842013888887,0)" xlink:href="#as"/><use transform="matrix(0.010850694444444444,0,0,0.010850694444444444,86.58854166666664,0)" xlink:href="#aC"/><use transform="matrix(0.010850694444444444,0,0,0.010850694444444444,96.18055555555553,0)" xlink:href="#aD"/></g><path fill="#333" d="M783-642c0 71 21 306 21 377 0 460-121 690-364 690-136 0-280-109-327-207-34-72 20-145 90-143 27 0 63 24 107 73C435 286 558 226 587 5 297 130 44-148 44-418c0-291 294-545 577-389 67-39 142-43 157 48 3 17 5 56 5 117zM242-423c0 121 98 257 214 257 26 0 76-21 150-63-1-66-9-190-22-372-40-39-84-59-133-59-116 0-209 122-209 237" id="aE"/><path fill="#333" d="M432-858c231 0 331 186 331 435 0 67-21 291-19 358 2 50-44 98-94 97-161-3-83-317-83-459 0-161-47-242-140-242-73 0-130 35-171 106v447c0 100-32 150-97 150C98 34 67-4 67-80c-2-279 3-404 3-720 48-30 87-45 116-45 27 0 46 14 56 41 59-36 123-54 190-54" id="aF"/><path fill="#333" d="M1201 126H212V-34h989v160" id="aG"/><path fill="#333" d="M683-811c45-89 204-23 170 70C723-388 475 102 295 379c-62 7-148-23-150-70 0-14 63-137 190-370-52-145-206-460-286-707 72-102 138-124 192 0 58 134 146 340 208 481 110-218 131-319 234-524" id="aH"/><path fill="#333" d="M531-614c-33 0-117-43-150-43-49 0-84 9-103 26 45 67 311 167 362 220 54 56 87 121 87 208C727-59 571 34 418 34 267 34 142-29 43-154c7-41 48-130 87-128 2 0 37 22 104 66s127 66 179 66c66 0 107-17 123-50-5-45-48-90-128-136-72-41-147-78-217-121-80-49-116-111-116-174 0-130 162-224 297-224 79 0 256 66 256 140 0 50-47 101-97 101" id="aI"/><path fill="#333" d="M280-225c67 0 116 72 116 138 0 64-59 119-123 119-72 0-138-40-138-105 0-66 78-152 145-152" id="aJ"/><g id="o"><use transform="matrix(0.010850694444444444,0,0,0.010850694444444444,0,0)" xlink:href="#aE"/><use transform="matrix(0.010850694444444444,0,0,0.010850694444444444,9.375,0)" xlink:href="#aC"/><use transform="matrix(0.010850694444444444,0,0,0.010850694444444444,18.96701388888889,0)" xlink:href="#aF"/><use transform="matrix(0.010850694444444444,0,0,0.010850694444444444,27.897135416666664,0)" xlink:href="#aG"/><use transform="matrix(0.010850694444444444,0,0,0.010850694444444444,43.27256944444444,0)" xlink:href="#au"/><use transform="matrix(0.010850694444444444,0,0,0.010850694444444444,50.748697916666664,0)" xlink:href="#aH"/><use transform="matrix(0.010850694444444444,0,0,0.010850694444444444,60.23220486111111,0)" xlink:href="#as"/><use transform="matrix(0.010850694444444444,0,0,0.010850694444444444,69.16232638888889,0)" xlink:href="#aC"/><use transform="matrix(0.010850694444444444,0,0,0.010850694444444444,78.75434027777777,0)" xlink:href="#au"/><use transform="matrix(0.010850694444444444,0,0,0.010850694444444444,86.23046875,0)" xlink:href="#aD"/><use transform="matrix(0.010850694444444444,0,0,0.010850694444444444,94.67230902777777,0)" xlink:href="#aC"/><use transform="matrix(0.010850694444444444,0,0,0.010850694444444444,104.26432291666666,0)" xlink:href="#aC"/><use transform="matrix(0.010850694444444444,0,0,0.010850694444444444,113.85633680555556,0)" xlink:href="#aI"/><use transform="matrix(0.010850694444444444,0,0,0.010850694444444444,121.2890625,0)" xlink:href="#aJ"/><use transform="matrix(0.010850694444444444,0,0,0.010850694444444444,127.26779513888889,0)" xlink:href="#as"/><use transform="matrix(0.010850694444444444,0,0,0.010850694444444444,136.19791666666666,0)" xlink:href="#aH"/></g><path fill="#3a414a" d="M488-1143c62 0 116 46 116 109 0 53-54 100-107 100-60 0-108-53-108-112 0-53 46-97 99-97zm113 428c0 96 19 411 15 507-6 157-22 294-58 406-53 168-150 249-275 249C108 447 3 254 7 67c43-31 81-47 114-47 59 0 63 72 74 118 20 82 45 123 81 123 96 0 144-140 144-420 0-102-14-439-14-541 0-90 34-135 101-135 63 0 94 40 94 120" id="aK"/><g id="p"><use transform="matrix(0.014105902777777778,0,0,0.014105902777777778,0,0)" xlink:href="#ab"/><use transform="matrix(0.014105902777777778,0,0,0.014105902777777778,9.71896701388889,0)" xlink:href="#ar"/><use transform="matrix(0.014105902777777778,0,0,0.014105902777777778,22.047526041666668,0)" xlink:href="#R"/><use transform="matrix(0.014105902777777778,0,0,0.014105902777777778,33.65668402777778,0)" xlink:href="#V"/><use transform="matrix(0.014105902777777778,0,0,0.014105902777777778,46.126302083333336,0)" xlink:href="#ab"/><use transform="matrix(0.014105902777777778,0,0,0.014105902777777778,55.84526909722223,0)" xlink:href="#af"/><use transform="matrix(0.014105902777777778,0,0,0.014105902777777778,66.81966145833334,0)" xlink:href="#V"/><use transform="matrix(0.014105902777777778,0,0,0.014105902777777778,79.2892795138889,0)" xlink:href="#V"/><use transform="matrix(0.014105902777777778,0,0,0.014105902777777778,91.75889756944446,0)" xlink:href="#ac"/><use transform="matrix(0.014105902777777778,0,0,0.014105902777777778,101.42144097222223,0)" xlink:href="#am"/><use transform="matrix(0.014105902777777778,0,0,0.014105902777777778,109.19379340277779,0)" xlink:href="#aK"/><use transform="matrix(0.014105902777777778,0,0,0.014105902777777778,118.67296006944444,0)" xlink:href="#ac"/><use transform="matrix(0.014105902777777778,0,0,0.014105902777777778,129.53450520833334,0)" xlink:href="#T"/><use transform="matrix(0.014105902777777778,0,0,0.014105902777777778,141.22829861111111,0)" xlink:href="#U"/></g><path fill="green" d="M476-126c0-66 16-285 16-352 0-127-35-191-105-191-52 0-95 33-128 99v459c-1 97-34 145-99 145C99 34 68-4 68-80c-3-280 4-405 5-720 48-30 87-45 118-45 23 0 40 10 51 29 122-74 282-47 360 57 61-63 131-94 210-94 198 0 297 146 297 437 0 66-17 290-15 356 2 51-43 94-94 94-66 0-99-52-99-155 0-65 14-288 14-353 0-127-35-190-104-190-57 0-102 36-133 109 23 130-10 351-9 490 1 50-44 94-94 94-66 0-99-52-99-155" id="aL"/><path fill="green" d="M836-686c0 187-30 463 2 630-71 75-129 122-171 10-82 53-167 80-256 80C187 34 46-160 46-393c0-281 308-555 614-431 19-27 45-40 76-40 67 0 100 59 100 178zM249-382c0 105 58 213 157 213 80 0 157-36 232-109 3-73 4-181 4-326 1 1-110-58-139-48-132-6-254 139-254 270" id="aM"/><path fill="green" d="M166-1145c59 0 114 47 114 107 0 55-45 110-101 110S68-983 68-1038c0-54 42-107 98-107zm102 399c0 47 1 108-5 186-18 245-2 393-31 567C152 48 64 53 63-55c-3-213 9-280 9-561 0-147 36-220 109-220 58 0 87 30 87 90" id="aN"/><path fill="green" d="M432-858c231 0 331 186 331 435 0 67-21 291-19 358 2 50-44 98-94 97-161-3-83-317-83-459 0-161-47-242-140-242-73 0-130 35-171 106v447c0 100-32 150-97 150C98 34 67-4 67-80c-2-279 3-404 3-720 48-30 87-45 116-45 27 0 46 14 56 41 59-36 123-54 190-54" id="aO"/><path fill="green" d="M280-225c67 0 116 72 116 138 0 64-59 119-123 119-72 0-138-40-138-105 0-66 78-152 145-152" id="aP"/><path fill="green" d="M241-811c290-144 563 150 563 427 0 269-245 510-522 386 3 148 1 204-14 321-81 99-190 62-178-113 16-227-25-734-25-971 0-93 132-125 176-50zm191 649c100 0 176-118 176-222 0-126-96-273-217-273-53 0-94 27-123 80 5 119 8 237 8 352 56 42 108 63 156 63" id="aQ"/><path fill="green" d="M683-811c45-89 204-23 170 70C723-388 475 102 295 379c-62 7-148-23-150-70 0-14 63-137 190-370-52-145-206-460-286-707 72-102 138-124 192 0 58 134 146 340 208 481 110-218 131-319 234-524" id="aR"/><g id="q"><use transform="matrix(0.010850694444444444,0,0,0.010850694444444444,0,0)" xlink:href="#aL"/><use transform="matrix(0.010850694444444444,0,0,0.010850694444444444,12.738715277777777,0)" xlink:href="#aM"/><use transform="matrix(0.010850694444444444,0,0,0.010850694444444444,22.55859375,0)" xlink:href="#aN"/><use transform="matrix(0.010850694444444444,0,0,0.010850694444444444,26.302083333333332,0)" xlink:href="#aO"/><use transform="matrix(0.010850694444444444,0,0,0.010850694444444444,35.23220486111111,0)" xlink:href="#aP"/><use transform="matrix(0.010850694444444444,0,0,0.010850694444444444,41.21093749999999,0)" xlink:href="#aQ"/><use transform="matrix(0.010850694444444444,0,0,0.010850694444444444,50.14105902777778,0)" xlink:href="#aR"/></g><path fill="teal" d="M783-642c0 71 21 306 21 377 0 460-121 690-364 690-136 0-280-109-327-207-34-72 20-145 90-143 27 0 63 24 107 73C435 286 558 226 587 5 297 130 44-148 44-418c0-291 294-545 577-389 67-39 142-43 157 48 3 17 5 56 5 117zM242-423c0 121 98 257 214 257 26 0 76-21 150-63-1-66-9-190-22-372-40-39-84-59-133-59-116 0-209 122-209 237" id="aS"/><path fill="teal" d="M741-273c50-2 102 44 100 94 0 19-8 40-25 63C764-40 600 34 473 34 251 34 46-175 46-396c0-217 200-459 413-459 160 0 336 211 336 369 0 44-28 73-82 92-62 22-312 32-464 24 15 104 106 205 224 203 39 0 88-18 149-53s100-53 119-53zM572-570c-76-133-187-104-270 20 39-1 129-7 270-20" id="aT"/><path fill="teal" d="M432-858c231 0 331 186 331 435 0 67-21 291-19 358 2 50-44 98-94 97-161-3-83-317-83-459 0-161-47-242-140-242-73 0-130 35-171 106v447c0 100-32 150-97 150C98 34 67-4 67-80c-2-279 3-404 3-720 48-30 87-45 116-45 27 0 46 14 56 41 59-36 123-54 190-54" id="aU"/><path fill="teal" d="M1201 126H212V-34h989v160" id="aV"/><path fill="teal" d="M476-126c0-66 16-285 16-352 0-127-35-191-105-191-52 0-95 33-128 99v459c-1 97-34 145-99 145C99 34 68-4 68-80c-3-280 4-405 5-720 48-30 87-45 118-45 23 0 40 10 51 29 122-74 282-47 360 57 61-63 131-94 210-94 198 0 297 146 297 437 0 66-17 290-15 356 2 51-43 94-94 94-66 0-99-52-99-155 0-65 14-288 14-353 0-127-35-190-104-190-57 0-102 36-133 109 23 130-10 351-9 490 1 50-44 94-94 94-66 0-99-52-99-155" id="aW"/><path fill="teal" d="M425-862c217 0 353 210 353 439 0 240-138 457-368 457C191 34 49-155 49-377c0-243 145-485 376-485zm-9 703c111 0 169-142 169-264 0-111-61-246-162-246-123 0-184 93-184 278 0 155 59 232 177 232" id="aX"/><path fill="teal" d="M671-870c56 0 110 48 95 114-60 267-147 511-266 730-21 40-51 60-89 60-55 0-100-60-145-176-55-140-136-349-235-631 42-51 79-77 112-77 23 0 45 12 57 41 49 113 132 319 211 504 69-187 119-334 150-443 24-81 61-122 110-122" id="aY"/><path fill="teal" d="M531-614c-33 0-117-43-150-43-49 0-84 9-103 26 45 67 311 167 362 220 54 56 87 121 87 208C727-59 571 34 418 34 267 34 142-29 43-154c7-41 48-130 87-128 2 0 37 22 104 66s127 66 179 66c66 0 107-17 123-50-5-45-48-90-128-136-72-41-147-78-217-121-80-49-116-111-116-174 0-130 162-224 297-224 79 0 256 66 256 140 0 50-47 101-97 101" id="aZ"/><path fill="teal" d="M280-225c67 0 116 72 116 138 0 64-59 119-123 119-72 0-138-40-138-105 0-66 78-152 145-152" id="ba"/><path fill="teal" d="M241-811c290-144 563 150 563 427 0 269-245 510-522 386 3 148 1 204-14 321-81 99-190 62-178-113 16-227-25-734-25-971 0-93 132-125 176-50zm191 649c100 0 176-118 176-222 0-126-96-273-217-273-53 0-94 27-123 80 5 119 8 237 8 352 56 42 108 63 156 63" id="bb"/><path fill="teal" d="M683-811c45-89 204-23 170 70C723-388 475 102 295 379c-62 7-148-23-150-70 0-14 63-137 190-370-52-145-206-460-286-707 72-102 138-124 192 0 58 134 146 340 208 481 110-218 131-319 234-524" id="bc"/><g id="r"><use transform="matrix(0.010850694444444444,0,0,0.010850694444444444,0,0)" xlink:href="#aS"/><use transform="matrix(0.010850694444444444,0,0,0.010850694444444444,9.375,0)" xlink:href="#aT"/><use transform="matrix(0.010850694444444444,0,0,0.010850694444444444,18.96701388888889,0)" xlink:href="#aU"/><use transform="matrix(0.010850694444444444,0,0,0.010850694444444444,27.897135416666664,0)" xlink:href="#aV"/><use transform="matrix(0.010850694444444444,0,0,0.010850694444444444,43.27256944444444,0)" xlink:href="#aW"/><use transform="matrix(0.010850694444444444,0,0,0.010850694444444444,56.01128472222222,0)" xlink:href="#aX"/><use transform="matrix(0.010850694444444444,0,0,0.010850694444444444,64.56163194444444,0)" xlink:href="#aY"/><use transform="matrix(0.010850694444444444,0,0,0.010850694444444444,72.89496527777777,0)" xlink:href="#aT"/><use transform="matrix(0.010850694444444444,0,0,0.010850694444444444,82.48697916666666,0)" xlink:href="#aZ"/><use transform="matrix(0.010850694444444444,0,0,0.010850694444444444,89.91970486111111,0)" xlink:href="#ba"/><use transform="matrix(0.010850694444444444,0,0,0.010850694444444444,95.8984375,0)" xlink:href="#bb"/><use transform="matrix(0.010850694444444444,0,0,0.010850694444444444,104.82855902777777,0)" xlink:href="#bc"/></g><path fill="green" d="M531-614c-33 0-117-43-150-43-49 0-84 9-103 26 45 67 311 167 362 220 54 56 87 121 87 208C727-59 571 34 418 34 267 34 142-29 43-154c7-41 48-130 87-128 2 0 37 22 104 66s127 66 179 66c66 0 107-17 123-50-5-45-48-90-128-136-72-41-147-78-217-121-80-49-116-111-116-174 0-130 162-224 297-224 79 0 256 66 256 140 0 50-47 101-97 101" id="bd"/><path fill="green" d="M783-642c0 71 21 306 21 377 0 460-121 690-364 690-136 0-280-109-327-207-34-72 20-145 90-143 27 0 63 24 107 73C435 286 558 226 587 5 297 130 44-148 44-418c0-291 294-545 577-389 67-39 142-43 157 48 3 17 5 56 5 117zM242-423c0 121 98 257 214 257 26 0 76-21 150-63-1-66-9-190-22-372-40-39-84-59-133-59-116 0-209 122-209 237" id="be"/><g id="s"><use transform="matrix(0.014105902777777778,0,0,0.014105902777777778,0,0)" xlink:href="#bd"/><use transform="matrix(0.014105902777777778,0,0,0.014105902777777778,10.86154513888889,0)" xlink:href="#be"/><use transform="matrix(0.014105902777777778,0,0,0.014105902777777778,23.04904513888889,0)" xlink:href="#aL"/></g><path fill="green" d="M253-1232c0 339 47 894 1 1220C165 56 70 64 75-94c7-254-17-925-15-1193 0-75 31-112 92-112 67 0 101 56 101 167" id="bf"/><path fill="green" d="M741-273c50-2 102 44 100 94 0 19-8 40-25 63C764-40 600 34 473 34 251 34 46-175 46-396c0-217 200-459 413-459 160 0 336 211 336 369 0 44-28 73-82 92-62 22-312 32-464 24 15 104 106 205 224 203 39 0 88-18 149-53s100-53 119-53zM572-570c-76-133-187-104-270 20 39-1 129-7 270-20" id="bg"/><path fill="green" d="M468-848c193 0 298 180 298 385 0 53-38 94-92 94-48 0-81-25-95-75-20-75-16-213-105-213-95 0-223 127-223 222v425c-45 29-84 44-116 44-42 0-63-31-63-92 0-166-4-210-4-604 0-125 33-188 99-188 53 0 83 27 91 82 68-53 138-80 210-80" id="bh"/><g id="t"><use transform="matrix(0.014105902777777778,0,0,0.014105902777777778,0,0)" xlink:href="#be"/><use transform="matrix(0.014105902777777778,0,0,0.014105902777777778,12.1875,0)" xlink:href="#aM"/><use transform="matrix(0.014105902777777778,0,0,0.014105902777777778,24.95334201388889,0)" xlink:href="#bf"/><use transform="matrix(0.014105902777777778,0,0,0.014105902777777778,29.622395833333332,0)" xlink:href="#bf"/><use transform="matrix(0.014105902777777778,0,0,0.014105902777777778,34.29144965277778,0)" xlink:href="#bg"/><use transform="matrix(0.014105902777777778,0,0,0.014105902777777778,46.761067708333336,0)" xlink:href="#bh"/><use transform="matrix(0.014105902777777778,0,0,0.014105902777777778,57.73546006944444,0)" xlink:href="#aR"/></g><path fill="green" d="M555-828c4-155-11-330-11-481 0-60 30-90 89-90 48 0 79 26 94 78 7 24 10 70 10 137 0 363-3 845 29 1153-44 35-82 53-114 53-23 0-40-14-53-42-61 36-127 54-196 54C185 34 15-173 15-393c0-266 251-557 540-435zM215-399c0 121 74 239 189 239 65 0 121-23 166-69-7-86-10-208-10-365-47-42-93-63-138-63-109 0-207 146-207 258" id="bi"/><path fill="green" d="M584-872c50 0 94 39 94 90 0 53-31 85-94 98-29 6-81 10-156 10v662c-58 31-101 46-128 46-39 0-59-22-59-65 2-210 3-252 3-645-82 0-147-4-195-12-65-109-48-182 122-181 13-1 61 4 73 4v-364c-1-48 42-89 91-89 47 0 92 41 92 89v359c43-1 96-2 157-2" id="bj"/><g id="u"><use transform="matrix(0.014105902777777778,0,0,0.014105902777777778,0,0)" xlink:href="#bi"/><use transform="matrix(0.014105902777777778,0,0,0.014105902777777778,11.693793402777779,0)" xlink:href="#aM"/><use transform="matrix(0.014105902777777778,0,0,0.014105902777777778,24.459635416666668,0)" xlink:href="#bj"/><use transform="matrix(0.014105902777777778,0,0,0.014105902777777778,34.17860243055556,0)" xlink:href="#aM"/></g><g id="v"><use transform="matrix(0.014105902777777778,0,0,0.014105902777777778,0,0)" xlink:href="#aZ"/><use transform="matrix(0.014105902777777778,0,0,0.014105902777777778,10.86154513888889,0)" xlink:href="#aS"/><use transform="matrix(0.014105902777777778,0,0,0.014105902777777778,23.04904513888889,0)" xlink:href="#aW"/></g><path fill="teal" d="M836-686c0 187-30 463 2 630-71 75-129 122-171 10-82 53-167 80-256 80C187 34 46-160 46-393c0-281 308-555 614-431 19-27 45-40 76-40 67 0 100 59 100 178zM249-382c0 105 58 213 157 213 80 0 157-36 232-109 3-73 4-181 4-326 1 1-110-58-139-48-132-6-254 139-254 270" id="bk"/><path fill="teal" d="M253-1232c0 339 47 894 1 1220C165 56 70 64 75-94c7-254-17-925-15-1193 0-75 31-112 92-112 67 0 101 56 101 167" id="bl"/><path fill="teal" d="M468-848c193 0 298 180 298 385 0 53-38 94-92 94-48 0-81-25-95-75-20-75-16-213-105-213-95 0-223 127-223 222v425c-45 29-84 44-116 44-42 0-63-31-63-92 0-166-4-210-4-604 0-125 33-188 99-188 53 0 83 27 91 82 68-53 138-80 210-80" id="bm"/><g id="w"><use transform="matrix(0.014105902777777778,0,0,0.014105902777777778,0,0)" xlink:href="#aS"/><use transform="matrix(0.014105902777777778,0,0,0.014105902777777778,12.1875,0)" xlink:href="#bk"/><use transform="matrix(0.014105902777777778,0,0,0.014105902777777778,24.95334201388889,0)" xlink:href="#bl"/><use transform="matrix(0.014105902777777778,0,0,0.014105902777777778,29.622395833333332,0)" xlink:href="#bl"/><use transform="matrix(0.014105902777777778,0,0,0.014105902777777778,34.29144965277778,0)" xlink:href="#aT"/><use transform="matrix(0.014105902777777778,0,0,0.014105902777777778,46.761067708333336,0)" xlink:href="#bm"/><use transform="matrix(0.014105902777777778,0,0,0.014105902777777778,57.73546006944444,0)" xlink:href="#bc"/></g><g id="x"><use transform="matrix(0.014105902777777778,0,0,0.014105902777777778,0,0)" xlink:href="#aW"/><use transform="matrix(0.014105902777777778,0,0,0.014105902777777778,16.56032986111111,0)" xlink:href="#aX"/><use transform="matrix(0.014105902777777778,0,0,0.014105902777777778,27.67578125,0)" xlink:href="#aY"/><use transform="matrix(0.014105902777777778,0,0,0.014105902777777778,38.50911458333333,0)" xlink:href="#aT"/></g><path fill="teal" d="M166-1145c59 0 114 47 114 107 0 55-45 110-101 110S68-983 68-1038c0-54 42-107 98-107zm102 399c0 47 1 108-5 186-18 245-2 393-31 567C152 48 64 53 63-55c-3-213 9-280 9-561 0-147 36-220 109-220 58 0 87 30 87 90" id="bn"/><path fill="teal" d="M693-317c70-2 127 82 85 150C718-70 552 31 404 34 201 38 40-151 44-358c4-212 146-388 302-458 115-51 232-54 316 28 45 43 73 95 84 157-37 55-72 83-106 83-41 12-94-120-135-109-108-10-258 167-258 275 0 142 52 213 157 213 43 0 97-25 163-74s108-74 126-74" id="bo"/><g id="y"><use transform="matrix(0.014105902777777778,0,0,0.014105902777777778,0,0)" xlink:href="#bn"/><use transform="matrix(0.014105902777777778,0,0,0.014105902777777778,4.866536458333333,0)" xlink:href="#bo"/><use transform="matrix(0.014105902777777778,0,0,0.014105902777777778,16.64496527777778,0)" xlink:href="#aX"/><use transform="matrix(0.014105902777777778,0,0,0.014105902777777778,28.338758680555557,0)" xlink:href="#aU"/><use transform="matrix(0.014105902777777778,0,0,0.014105902777777778,39.94791666666667,0)" xlink:href="#aZ"/></g><path fill="#3a414a" d="M954-869c48 0 96 41 94 89 17 3-210 786-222 758-47 68-145 62-169-24-34-121-50-238-101-408-19 75-49 187-88 336C441-17 397 34 338 34c-35 0-62-19-87-54C195-99 65-647 49-794c132-103 169-61 221 139 17 65 35 167 68 300l99-369c26-97 65-145 116-145 31 0 57 15 80 45s64 167 123 414c24-74 73-259 101-370 16-61 54-89 97-89" id="bp"/><g id="z"><use transform="matrix(0.014105902777777778,0,0,0.014105902777777778,0,0)" xlink:href="#af"/><use transform="matrix(0.014105902777777778,0,0,0.014105902777777778,10.97439236111111,0)" xlink:href="#Y"/><use transform="matrix(0.014105902777777778,0,0,0.014105902777777778,23.50043402777778,0)" xlink:href="#bp"/></g><g id="A"><use transform="matrix(0.014105902777777778,0,0,0.014105902777777778,0,0)" xlink:href="#R"/><use transform="matrix(0.014105902777777778,0,0,0.014105902777777778,11.60915798611111,0)" xlink:href="#T"/><use transform="matrix(0.014105902777777778,0,0,0.014105902777777778,23.30295138888889,0)" xlink:href="#af"/><use transform="matrix(0.014105902777777778,0,0,0.014105902777777778,34.27734375,0)" xlink:href="#ab"/><use transform="matrix(0.014105902777777778,0,0,0.014105902777777778,43.996310763888886,0)" xlink:href="#af"/><use transform="matrix(0.014105902777777778,0,0,0.014105902777777778,54.970703125,0)" xlink:href="#Y"/><use transform="matrix(0.014105902777777778,0,0,0.014105902777777778,67.73654513888889,0)" xlink:href="#Z"/><use transform="matrix(0.014105902777777778,0,0,0.014105902777777778,72.60308159722221,0)" xlink:href="#ab"/><use transform="matrix(0.014105902777777778,0,0,0.014105902777777778,82.3220486111111,0)" xlink:href="#ac"/></g><path fill="navy" d="M783-642c0 71 21 306 21 377 0 460-121 690-364 690-136 0-280-109-327-207-34-72 20-145 90-143 27 0 63 24 107 73C435 286 558 226 587 5 297 130 44-148 44-418c0-291 294-545 577-389 67-39 142-43 157 48 3 17 5 56 5 117zM242-423c0 121 98 257 214 257 26 0 76-21 150-63-1-66-9-190-22-372-40-39-84-59-133-59-116 0-209 122-209 237" id="bq"/><path fill="navy" d="M741-273c50-2 102 44 100 94 0 19-8 40-25 63C764-40 600 34 473 34 251 34 46-175 46-396c0-217 200-459 413-459 160 0 336 211 336 369 0 44-28 73-82 92-62 22-312 32-464 24 15 104 106 205 224 203 39 0 88-18 149-53s100-53 119-53zM572-570c-76-133-187-104-270 20 39-1 129-7 270-20" id="br"/><path fill="navy" d="M432-858c231 0 331 186 331 435 0 67-21 291-19 358 2 50-44 98-94 97-161-3-83-317-83-459 0-161-47-242-140-242-73 0-130 35-171 106v447c0 100-32 150-97 150C98 34 67-4 67-80c-2-279 3-404 3-720 48-30 87-45 116-45 27 0 46 14 56 41 59-36 123-54 190-54" id="bs"/><path fill="navy" d="M1201 126H212V-34h989v160" id="bt"/><path fill="navy" d="M241-811c290-144 563 150 563 427 0 269-245 510-522 386 3 148 1 204-14 321-81 99-190 62-178-113 16-227-25-734-25-971 0-93 132-125 176-50zm191 649c100 0 176-118 176-222 0-126-96-273-217-273-53 0-94 27-123 80 5 119 8 237 8 352 56 42 108 63 156 63" id="bu"/><path fill="navy" d="M425-862c217 0 353 210 353 439 0 240-138 457-368 457C191 34 49-155 49-377c0-243 145-485 376-485zm-9 703c111 0 169-142 169-264 0-111-61-246-162-246-123 0-184 93-184 278 0 155 59 232 177 232" id="bv"/><path fill="navy" d="M468-848c193 0 298 180 298 385 0 53-38 94-92 94-48 0-81-25-95-75-20-75-16-213-105-213-95 0-223 127-223 222v425c-45 29-84 44-116 44-42 0-63-31-63-92 0-166-4-210-4-604 0-125 33-188 99-188 53 0 83 27 91 82 68-53 138-80 210-80" id="bw"/><path fill="navy" d="M584-872c50 0 94 39 94 90 0 53-31 85-94 98-29 6-81 10-156 10v662c-58 31-101 46-128 46-39 0-59-22-59-65 2-210 3-252 3-645-82 0-147-4-195-12-65-109-48-182 122-181 13-1 61 4 73 4v-364c-1-48 42-89 91-89 47 0 92 41 92 89v359c43-1 96-2 157-2" id="bx"/><path fill="navy" d="M836-686c0 187-30 463 2 630-71 75-129 122-171 10-82 53-167 80-256 80C187 34 46-160 46-393c0-281 308-555 614-431 19-27 45-40 76-40 67 0 100 59 100 178zM249-382c0 105 58 213 157 213 80 0 157-36 232-109 3-73 4-181 4-326 1 1-110-58-139-48-132-6-254 139-254 270" id="by"/><path fill="navy" d="M166-1145c59 0 114 47 114 107 0 55-45 110-101 110S68-983 68-1038c0-54 42-107 98-107zm102 399c0 47 1 108-5 186-18 245-2 393-31 567C152 48 64 53 63-55c-3-213 9-280 9-561 0-147 36-220 109-220 58 0 87 30 87 90" id="bz"/><path fill="navy" d="M531-614c-33 0-117-43-150-43-49 0-84 9-103 26 45 67 311 167 362 220 54 56 87 121 87 208C727-59 571 34 418 34 267 34 142-29 43-154c7-41 48-130 87-128 2 0 37 22 104 66s127 66 179 66c66 0 107-17 123-50-5-45-48-90-128-136-72-41-147-78-217-121-80-49-116-111-116-174 0-130 162-224 297-224 79 0 256 66 256 140 0 50-47 101-97 101" id="bA"/><path fill="navy" d="M874-172c53 0 97 45 97 99C971-2 761 34 340 34 242 34 193 0 193-67c0-85 48-193 150-319 90-111 186-218 278-329 102-124 150-228 150-307 0-116-99-176-220-176-156 0-209 91-186 234 8 52-48 100-100 100-71 0-103-105-103-186 0-214 174-349 393-349 229 0 411 151 411 375 0 121-58 262-184 415-101 122-208 237-311 356-26 30-45 58-58 81h461" id="bB"/><path fill="navy" d="M280-225c67 0 116 72 116 138 0 64-59 119-123 119-72 0-138-40-138-105 0-66 78-152 145-152" id="bC"/><path fill="navy" d="M683-811c45-89 204-23 170 70C723-388 475 102 295 379c-62 7-148-23-150-70 0-14 63-137 190-370-52-145-206-460-286-707 72-102 138-124 192 0 58 134 146 340 208 481 110-218 131-319 234-524" id="bD"/><g id="B"><use transform="matrix(0.010850694444444444,0,0,0.010850694444444444,0,0)" xlink:href="#bq"/><use transform="matrix(0.010850694444444444,0,0,0.010850694444444444,9.375,0)" xlink:href="#br"/><use transform="matrix(0.010850694444444444,0,0,0.010850694444444444,18.96701388888889,0)" xlink:href="#bs"/><use transform="matrix(0.010850694444444444,0,0,0.010850694444444444,27.897135416666664,0)" xlink:href="#bt"/><use transform="matrix(0.010850694444444444,0,0,0.010850694444444444,43.27256944444444,0)" xlink:href="#bu"/><use transform="matrix(0.010850694444444444,0,0,0.010850694444444444,52.20269097222222,0)" xlink:href="#bv"/><use transform="matrix(0.010850694444444444,0,0,0.010850694444444444,61.197916666666664,0)" xlink:href="#bw"/><use transform="matrix(0.010850694444444444,0,0,0.010850694444444444,69.63975694444444,0)" xlink:href="#bx"/><use transform="matrix(0.010850694444444444,0,0,0.010850694444444444,77.11588541666667,0)" xlink:href="#bw"/><use transform="matrix(0.010850694444444444,0,0,0.010850694444444444,85.55772569444444,0)" xlink:href="#by"/><use transform="matrix(0.010850694444444444,0,0,0.010850694444444444,95.37760416666666,0)" xlink:href="#bz"/><use transform="matrix(0.010850694444444444,0,0,0.010850694444444444,99.12109374999997,0)" xlink:href="#bx"/><use transform="matrix(0.010850694444444444,0,0,0.010850694444444444,106.59722222222221,0)" xlink:href="#bA"/><use transform="matrix(0.010850694444444444,0,0,0.010850694444444444,114.95225694444441,0)" xlink:href="#bB"/><use transform="matrix(0.010850694444444444,0,0,0.010850694444444444,127.15928819444441,0)" xlink:href="#bC"/><use transform="matrix(0.010850694444444444,0,0,0.010850694444444444,133.13802083333331,0)" xlink:href="#bu"/><use transform="matrix(0.010850694444444444,0,0,0.010850694444444444,142.0681423611111,0)" xlink:href="#bD"/></g><path fill="navy" d="M476-126c0-66 16-285 16-352 0-127-35-191-105-191-52 0-95 33-128 99v459c-1 97-34 145-99 145C99 34 68-4 68-80c-3-280 4-405 5-720 48-30 87-45 118-45 23 0 40 10 51 29 122-74 282-47 360 57 61-63 131-94 210-94 198 0 297 146 297 437 0 66-17 290-15 356 2 51-43 94-94 94-66 0-99-52-99-155 0-65 14-288 14-353 0-127-35-190-104-190-57 0-102 36-133 109 23 130-10 351-9 490 1 50-44 94-94 94-66 0-99-52-99-155" id="bE"/><g id="C"><use transform="matrix(0.014105902777777778,0,0,0.014105902777777778,0,0)" xlink:href="#bA"/><use transform="matrix(0.014105902777777778,0,0,0.014105902777777778,10.86154513888889,0)" xlink:href="#bq"/><use transform="matrix(0.014105902777777778,0,0,0.014105902777777778,23.04904513888889,0)" xlink:href="#bE"/></g><path fill="navy" d="M253-1232c0 339 47 894 1 1220C165 56 70 64 75-94c7-254-17-925-15-1193 0-75 31-112 92-112 67 0 101 56 101 167" id="bF"/><g id="D"><use transform="matrix(0.014105902777777778,0,0,0.014105902777777778,0,0)" xlink:href="#bq"/><use transform="matrix(0.014105902777777778,0,0,0.014105902777777778,12.1875,0)" xlink:href="#by"/><use transform="matrix(0.014105902777777778,0,0,0.014105902777777778,24.95334201388889,0)" xlink:href="#bF"/><use transform="matrix(0.014105902777777778,0,0,0.014105902777777778,29.622395833333332,0)" xlink:href="#bF"/><use transform="matrix(0.014105902777777778,0,0,0.014105902777777778,34.29144965277778,0)" xlink:href="#br"/><use transform="matrix(0.014105902777777778,0,0,0.014105902777777778,46.761067708333336,0)" xlink:href="#bw"/><use transform="matrix(0.014105902777777778,0,0,0.014105902777777778,57.73546006944444,0)" xlink:href="#bD"/></g><g id="E"><use transform="matrix(0.014105902777777778,0,0,0.014105902777777778,0,0)" xlink:href="#bu"/><use transform="matrix(0.014105902777777778,0,0,0.014105902777777778,11.60915798611111,0)" xlink:href="#bv"/><use transform="matrix(0.014105902777777778,0,0,0.014105902777777778,23.30295138888889,0)" xlink:href="#bw"/><use transform="matrix(0.014105902777777778,0,0,0.014105902777777778,34.27734375,0)" xlink:href="#bx"/><use transform="matrix(0.014105902777777778,0,0,0.014105902777777778,43.996310763888886,0)" xlink:href="#bw"/><use transform="matrix(0.014105902777777778,0,0,0.014105902777777778,54.970703125,0)" xlink:href="#by"/><use transform="matrix(0.014105902777777778,0,0,0.014105902777777778,67.73654513888889,0)" xlink:href="#bz"/><use transform="matrix(0.014105902777777778,0,0,0.014105902777777778,72.60308159722221,0)" xlink:href="#bx"/><use transform="matrix(0.014105902777777778,0,0,0.014105902777777778,82.3220486111111,0)" xlink:href="#bA"/></g><path fill="purple" d="M783-642c0 71 21 306 21 377 0 460-121 690-364 690-136 0-280-109-327-207-34-72 20-145 90-143 27 0 63 24 107 73C435 286 558 226 587 5 297 130 44-148 44-418c0-291 294-545 577-389 67-39 142-43 157 48 3 17 5 56 5 117zM242-423c0 121 98 257 214 257 26 0 76-21 150-63-1-66-9-190-22-372-40-39-84-59-133-59-116 0-209 122-209 237" id="bG"/><path fill="purple" d="M741-273c50-2 102 44 100 94 0 19-8 40-25 63C764-40 600 34 473 34 251 34 46-175 46-396c0-217 200-459 413-459 160 0 336 211 336 369 0 44-28 73-82 92-62 22-312 32-464 24 15 104 106 205 224 203 39 0 88-18 149-53s100-53 119-53zM572-570c-76-133-187-104-270 20 39-1 129-7 270-20" id="bH"/><path fill="purple" d="M432-858c231 0 331 186 331 435 0 67-21 291-19 358 2 50-44 98-94 97-161-3-83-317-83-459 0-161-47-242-140-242-73 0-130 35-171 106v447c0 100-32 150-97 150C98 34 67-4 67-80c-2-279 3-404 3-720 48-30 87-45 116-45 27 0 46 14 56 41 59-36 123-54 190-54" id="bI"/><path fill="purple" d="M1201 126H212V-34h989v160" id="bJ"/><path fill="purple" d="M531-614c-33 0-117-43-150-43-49 0-84 9-103 26 45 67 311 167 362 220 54 56 87 121 87 208C727-59 571 34 418 34 267 34 142-29 43-154c7-41 48-130 87-128 2 0 37 22 104 66s127 66 179 66c66 0 107-17 123-50-5-45-48-90-128-136-72-41-147-78-217-121-80-49-116-111-116-174 0-130 162-224 297-224 79 0 256 66 256 140 0 50-47 101-97 101" id="bK"/><path fill="purple" d="M241-811c290-144 563 150 563 427 0 269-245 510-522 386 3 148 1 204-14 321-81 99-190 62-178-113 16-227-25-734-25-971 0-93 132-125 176-50zm191 649c100 0 176-118 176-222 0-126-96-273-217-273-53 0-94 27-123 80 5 119 8 237 8 352 56 42 108 63 156 63" id="bL"/><path fill="purple" d="M468-848c193 0 298 180 298 385 0 53-38 94-92 94-48 0-81-25-95-75-20-75-16-213-105-213-95 0-223 127-223 222v425c-45 29-84 44-116 44-42 0-63-31-63-92 0-166-4-210-4-604 0-125 33-188 99-188 53 0 83 27 91 82 68-53 138-80 210-80" id="bM"/><path fill="purple" d="M166-1145c59 0 114 47 114 107 0 55-45 110-101 110S68-983 68-1038c0-54 42-107 98-107zm102 399c0 47 1 108-5 186-18 245-2 393-31 567C152 48 64 53 63-55c-3-213 9-280 9-561 0-147 36-220 109-220 58 0 87 30 87 90" id="bN"/><path fill="purple" d="M584-872c50 0 94 39 94 90 0 53-31 85-94 98-29 6-81 10-156 10v662c-58 31-101 46-128 46-39 0-59-22-59-65 2-210 3-252 3-645-82 0-147-4-195-12-65-109-48-182 122-181 13-1 61 4 73 4v-364c-1-48 42-89 91-89 47 0 92 41 92 89v359c43-1 96-2 157-2" id="bO"/><path fill="purple" d="M280-225c67 0 116 72 116 138 0 64-59 119-123 119-72 0-138-40-138-105 0-66 78-152 145-152" id="bP"/><path fill="purple" d="M683-811c45-89 204-23 170 70C723-388 475 102 295 379c-62 7-148-23-150-70 0-14 63-137 190-370-52-145-206-460-286-707 72-102 138-124 192 0 58 134 146 340 208 481 110-218 131-319 234-524" id="bQ"/><g id="F"><use transform="matrix(0.010850694444444444,0,0,0.010850694444444444,0,0)" xlink:href="#bG"/><use transform="matrix(0.010850694444444444,0,0,0.010850694444444444,9.375,0)" xlink:href="#bH"/><use transform="matrix(0.010850694444444444,0,0,0.010850694444444444,18.96701388888889,0)" xlink:href="#bI"/><use transform="matrix(0.010850694444444444,0,0,0.010850694444444444,27.897135416666664,0)" xlink:href="#bJ"/><use transform="matrix(0.010850694444444444,0,0,0.010850694444444444,43.27256944444444,0)" xlink:href="#bK"/><use transform="matrix(0.010850694444444444,0,0,0.010850694444444444,51.627604166666664,0)" xlink:href="#bL"/><use transform="matrix(0.010850694444444444,0,0,0.010850694444444444,60.55772569444444,0)" xlink:href="#bM"/><use transform="matrix(0.010850694444444444,0,0,0.010850694444444444,68.99956597222221,0)" xlink:href="#bN"/><use transform="matrix(0.010850694444444444,0,0,0.010850694444444444,72.74305555555554,0)" xlink:href="#bO"/><use transform="matrix(0.010850694444444444,0,0,0.010850694444444444,80.21918402777777,0)" xlink:href="#bH"/><use transform="matrix(0.010850694444444444,0,0,0.010850694444444444,89.81119791666666,0)" xlink:href="#bK"/><use transform="matrix(0.010850694444444444,0,0,0.010850694444444444,97.24392361111111,0)" xlink:href="#bP"/><use transform="matrix(0.010850694444444444,0,0,0.010850694444444444,103.22265625,0)" xlink:href="#bL"/><use transform="matrix(0.010850694444444444,0,0,0.010850694444444444,112.15277777777777,0)" xlink:href="#bQ"/></g><path fill="purple" d="M476-126c0-66 16-285 16-352 0-127-35-191-105-191-52 0-95 33-128 99v459c-1 97-34 145-99 145C99 34 68-4 68-80c-3-280 4-405 5-720 48-30 87-45 118-45 23 0 40 10 51 29 122-74 282-47 360 57 61-63 131-94 210-94 198 0 297 146 297 437 0 66-17 290-15 356 2 51-43 94-94 94-66 0-99-52-99-155 0-65 14-288 14-353 0-127-35-190-104-190-57 0-102 36-133 109 23 130-10 351-9 490 1 50-44 94-94 94-66 0-99-52-99-155" id="bR"/><g id="G"><use transform="matrix(0.014105902777777778,0,0,0.014105902777777778,0,0)" xlink:href="#bK"/><use transform="matrix(0.014105902777777778,0,0,0.014105902777777778,10.86154513888889,0)" xlink:href="#bG"/><use transform="matrix(0.014105902777777778,0,0,0.014105902777777778,23.04904513888889,0)" xlink:href="#bR"/></g><path fill="purple" d="M836-686c0 187-30 463 2 630-71 75-129 122-171 10-82 53-167 80-256 80C187 34 46-160 46-393c0-281 308-555 614-431 19-27 45-40 76-40 67 0 100 59 100 178zM249-382c0 105 58 213 157 213 80 0 157-36 232-109 3-73 4-181 4-326 1 1-110-58-139-48-132-6-254 139-254 270" id="bS"/><path fill="purple" d="M253-1232c0 339 47 894 1 1220C165 56 70 64 75-94c7-254-17-925-15-1193 0-75 31-112 92-112 67 0 101 56 101 167" id="bT"/><g id="H"><use transform="matrix(0.014105902777777778,0,0,0.014105902777777778,0,0)" xlink:href="#bL"/><use transform="matrix(0.014105902777777778,0,0,0.014105902777777778,11.60915798611111,0)" xlink:href="#bS"/><use transform="matrix(0.014105902777777778,0,0,0.014105902777777778,24.375,0)" xlink:href="#bT"/><use transform="matrix(0.014105902777777778,0,0,0.014105902777777778,29.044053819444446,0)" xlink:href="#bH"/><use transform="matrix(0.014105902777777778,0,0,0.014105902777777778,41.513671875,0)" xlink:href="#bO"/><use transform="matrix(0.014105902777777778,0,0,0.014105902777777778,51.232638888888886,0)" xlink:href="#bO"/><use transform="matrix(0.014105902777777778,0,0,0.014105902777777778,60.951605902777764,0)" xlink:href="#bH"/></g><path fill="purple" d="M555-828c4-155-11-330-11-481 0-60 30-90 89-90 48 0 79 26 94 78 7 24 10 70 10 137 0 363-3 845 29 1153-44 35-82 53-114 53-23 0-40-14-53-42-61 36-127 54-196 54C185 34 15-173 15-393c0-266 251-557 540-435zM215-399c0 121 74 239 189 239 65 0 121-23 166-69-7-86-10-208-10-365-47-42-93-63-138-63-109 0-207 146-207 258" id="bU"/><path fill="purple" d="M425-862c217 0 353 210 353 439 0 240-138 457-368 457C191 34 49-155 49-377c0-243 145-485 376-485zm-9 703c111 0 169-142 169-264 0-111-61-246-162-246-123 0-184 93-184 278 0 155 59 232 177 232" id="bV"/><g id="I"><use transform="matrix(0.014105902777777778,0,0,0.014105902777777778,0,0)" xlink:href="#bH"/><use transform="matrix(0.014105902777777778,0,0,0.014105902777777778,12.469618055555555,0)" xlink:href="#bU"/><use transform="matrix(0.014105902777777778,0,0,0.014105902777777778,24.163411458333336,0)" xlink:href="#bN"/><use transform="matrix(0.014105902777777778,0,0,0.014105902777777778,29.029947916666668,0)" xlink:href="#bO"/><use transform="matrix(0.014105902777777778,0,0,0.014105902777777778,38.74891493055556,0)" xlink:href="#bV"/><use transform="matrix(0.014105902777777778,0,0,0.014105902777777778,50.442708333333336,0)" xlink:href="#bM"/></g><g id="J"><use transform="matrix(0.014105902777777778,0,0,0.014105902777777778,0,0)" xlink:href="#bK"/><use transform="matrix(0.014105902777777778,0,0,0.014105902777777778,10.86154513888889,0)" xlink:href="#bL"/><use transform="matrix(0.014105902777777778,0,0,0.014105902777777778,22.470703125,0)" xlink:href="#bM"/><use transform="matrix(0.014105902777777778,0,0,0.014105902777777778,33.445095486111114,0)" xlink:href="#bN"/><use transform="matrix(0.014105902777777778,0,0,0.014105902777777778,38.31163194444445,0)" xlink:href="#bO"/><use transform="matrix(0.014105902777777778,0,0,0.014105902777777778,48.03059895833334,0)" xlink:href="#bH"/><use transform="matrix(0.014105902777777778,0,0,0.014105902777777778,60.5002170138889,0)" xlink:href="#bK"/></g><path fill="#3a414a" d="M396-1377c65-49 162-4 160 71-1 48-81 127-111 166-109 144-162 316-162 514 0 218 75 393 224 524-9 58-49 175-120 122C218-107 98-346 97-633c0-133 25-269 74-408 57-159 134-268 225-336" id="bW"/><g id="K"><use transform="matrix(0.010850694444444444,0,0,0.010850694444444444,0,0)" xlink:href="#bW"/><use transform="matrix(0.010850694444444444,0,0,0.010850694444444444,7.541232638888888,0)" xlink:href="#ae"/><use transform="matrix(0.010850694444444444,0,0,0.010850694444444444,17.003038194444443,0)" xlink:href="#ac"/><use transform="matrix(0.010850694444444444,0,0,0.010850694444444444,25.358072916666664,0)" xlink:href="#ae"/><use transform="matrix(0.010850694444444444,0,0,0.010850694444444444,34.81987847222222,0)" xlink:href="#Y"/><use transform="matrix(0.010850694444444444,0,0,0.010850694444444444,44.63975694444444,0)" xlink:href="#W"/><use transform="matrix(0.010850694444444444,0,0,0.010850694444444444,48.23133680555556,0)" xlink:href="#W"/><use transform="matrix(0.010850694444444444,0,0,0.010850694444444444,51.82291666666667,0)" xlink:href="#ar"/></g><g id="L"><use transform="matrix(0.010850694444444444,0,0,0.010850694444444444,0,0)" xlink:href="#R"/><use transform="matrix(0.010850694444444444,0,0,0.010850694444444444,8.930121527777777,0)" xlink:href="#T"/><use transform="matrix(0.010850694444444444,0,0,0.010850694444444444,17.92534722222222,0)" xlink:href="#ac"/><use transform="matrix(0.010850694444444444,0,0,0.010850694444444444,26.280381944444443,0)" xlink:href="#ab"/><use transform="matrix(0.010850694444444444,0,0,0.010850694444444444,33.756510416666664,0)" xlink:href="#V"/><use transform="matrix(0.010850694444444444,0,0,0.010850694444444444,43.34852430555556,0)" xlink:href="#ah"/></g><g id="M"><use transform="matrix(0.010850694444444444,0,0,0.010850694444444444,0,0)" xlink:href="#ag"/><use transform="matrix(0.010850694444444444,0,0,0.010850694444444444,9.461805555555555,0)" xlink:href="#ar"/></g><path fill="#3a414a" d="M671-870c56 0 110 48 95 114-60 267-147 511-266 730-21 40-51 60-89 60-55 0-100-60-145-176-55-140-136-349-235-631 42-51 79-77 112-77 23 0 45 12 57 41 49 113 132 319 211 504 69-187 119-334 150-443 24-81 61-122 110-122" id="bX"/><g id="N"><use transform="matrix(0.010850694444444444,0,0,0.010850694444444444,0,0)" xlink:href="#S"/><use transform="matrix(0.010850694444444444,0,0,0.010850694444444444,9.505208333333332,0)" xlink:href="#bX"/><use transform="matrix(0.010850694444444444,0,0,0.010850694444444444,18.250868055555554,0)" xlink:href="#ac"/></g><path fill="#3a414a" d="M510-1399c159 0 270 139 270 296 0 77-33 115-99 115-41 0-71-18-84-55-19-53-15-157-78-157-131 0-184 309-179 481 121 1 312-43 312 88 0 67-61 100-184 100-23 1-104-6-127-5 14 115 30 287 48 517-107 78-196 89-196-99 0-133-29-219-46-413l-68 2c-32-45-48-81-48-109 0-46 37-69 111-69 1-171 20-308 58-409 70-189 173-283 310-283" id="bY"/><g id="O"><use transform="matrix(0.010850694444444444,0,0,0.010850694444444444,0,0)" xlink:href="#ac"/><use transform="matrix(0.010850694444444444,0,0,0.010850694444444444,8.355034722222221,0)" xlink:href="#ab"/><use transform="matrix(0.010850694444444444,0,0,0.010850694444444444,15.831163194444445,0)" xlink:href="#Y"/><use transform="matrix(0.010850694444444444,0,0,0.010850694444444444,25.651041666666664,0)" xlink:href="#bY"/><use transform="matrix(0.010850694444444444,0,0,0.010850694444444444,33.843315972222214,0)" xlink:href="#bY"/></g><g id="P"><use transform="matrix(0.010850694444444444,0,0,0.010850694444444444,0,0)" xlink:href="#Z"/><use transform="matrix(0.010850694444444444,0,0,0.010850694444444444,3.743489583333333,0)" xlink:href="#U"/></g><path fill="#3a414a" d="M183-1263c8-58 49-174 117-123 171 129 292 360 294 647 0 134-25 271-75 411C462-167 384-57 294 12c-65 50-161 5-159-72 2-53 79-122 109-162 89-115 161-327 160-526 0-213-74-385-221-515" id="bZ"/><g id="Q"><use transform="matrix(0.010850694444444444,0,0,0.010850694444444444,0,0)" xlink:href="#ah"/><use transform="matrix(0.010850694444444444,0,0,0.010850694444444444,8.995225694444445,0)" xlink:href="#Z"/><use transform="matrix(0.010850694444444444,0,0,0.010850694444444444,12.73871527777778,0)" xlink:href="#ac"/><use transform="matrix(0.010850694444444444,0,0,0.010850694444444444,21.09375,0)" xlink:href="#X"/><use transform="matrix(0.010850694444444444,0,0,0.010850694444444444,30.15407986111111,0)" xlink:href="#T"/><use transform="matrix(0.010850694444444444,0,0,0.010850694444444444,39.14930555555556,0)" xlink:href="#af"/><use transform="matrix(0.010850694444444444,0,0,0.010850694444444444,47.59114583333333,0)" xlink:href="#ah"/><use transform="matrix(0.010850694444444444,0,0,0.010850694444444444,56.58637152777778,0)" xlink:href="#bZ"/></g></defs></g></svg>